<?xml version="1.0" standalone="no"?>
<!DOCTYPE svg PUBLIC "-//W3C//DTD SVG 20010904//EN"
 "http://www.w3.org/TR/2001/REC-SVG-20010904/DTD/svg10.dtd">
<svg version="1.0" xmlns="http://www.w3.org/2000/svg"
 width="650.000000pt" height="650.000000pt" viewBox="0 0 650.000000 650.000000"
 preserveAspectRatio="xMidYMid meet">
<metadata>
Created by potrace 1.14, written by Peter Selinger 2001-2017
</metadata>
<g transform="translate(0.000000,650.000000) scale(0.100000,-0.100000)"
fill="#000000" stroke="none">
<path d="M1495 5115 c-305 -43 -541 -160 -744 -370 -225 -233 -361 -543 -406
-930 -18 -152 -21 -680 -5 -833 35 -330 111 -566 254 -787 268 -411 687 -607
1210 -565 489 40 822 249 1010 635 69 140 97 227 125 385 l18 100 -228 0
c-211 0 -229 -1 -229 -17 0 -10 -11 -65 -25 -122 -83 -341 -235 -511 -524
-589 -84 -22 -116 -25 -261 -25 -137 0 -179 4 -245 21 -350 94 -574 404 -647
897 -9 63 -13 204 -13 470 0 350 2 390 23 505 51 283 132 463 282 623 164 176
379 255 660 244 160 -7 236 -24 350 -79 67 -32 101 -57 160 -117 113 -114 178
-250 224 -471 l22 -105 222 -3 222 -2 0 34 c0 58 -37 229 -70 328 -103 300
-314 543 -584 668 -214 100 -536 142 -801 105z"/>
<path d="M5105 3263 c-384 -1000 -705 -1833 -712 -1851 l-13 -32 186 2 187 3
708 1845 c390 1015 709 1846 709 1848 0 1 -82 2 -183 2 l-183 0 -699 -1817z"/>
<path d="M3650 4210 c-154 -53 -210 -268 -105 -406 94 -123 349 -115 438 13
74 108 51 283 -47 358 -73 55 -187 69 -286 35z"/>
<path d="M3646 2140 c-92 -36 -145 -110 -153 -215 -9 -107 26 -185 107 -239
38 -26 55 -31 130 -34 109 -5 160 9 215 59 84 77 104 204 51 313 -57 116 -215
168 -350 116z"/>
</g>
</svg>
